{
.appVersion = "3148";
.formatVersion = 3;
axes = (
{
name = Weight;
tag = wght;
}
);
classes = (
{
code = "colon.full semicolon.full dot-kata";
name = ntn;
notes = "ntn【中点】クラス

：；・";
},
{
code = "space enspace emspace space-han";
name = spc;
notes = "spc【スペース】クラス

スペース、enスペース、emスペース、全角スペース";
},
{
code = "whiteparenleft.full anglebracketleft blacklenticularbracketleft braceleft.full bracketleft.full cornerbracketleft dblanglebracketleft tortoiseshellbracketleft whitecornerbracketleft whitelenticularbracketleft whitesquarebracketleft whitetortoiseshellbracketleft parenleft.full quotedblleft quotedoubleprimeReversed quoteleft";
name = maf;
notes = "maf【前アキ-フル】クラス

｟〈【｛「《〔『〖〚〘［（“〝‘

※いずれも全角。";
},
{
code = "whiteparenleft.full.half anglebracketleft.half blacklenticularbracketleft.half braceleft.full.half bracketleft.full.half cornerbracketleft.half dblanglebracketleft.half tortoiseshellbracketleft.half whitecornerbracketleft.half whitelenticularbracketleft.half whitesquarebracketleft.half whitetortoiseshellbracketleft.half parenleft.full.half quotedblleft.half quotedoubleprimeReversed.half quoteleft.half";
name = mah;
notes = "mah【前アキ-ハーフ】クラス

｟〈【｛「《〔『〖〚〘［（“〝‘

※いずれもmafクラスをベースに幅のみを半角に変更したもの。";
},
{
code = "whiteparenright.full anglebracketright blacklenticularbracketright braceright.full bracketright.full cornerbracketright dblanglebracketright tortoiseshellbracketright whitecornerbracketright whitelenticularbracketright whitesquarebracketright whitetortoiseshellbracketright parenright.full lowquotedoubleprime quotedblright quotedoubleprime quoteright comma-han period-han comma.full period.full";
name = uaf;
notes = "uaf【後アキ-フル】クラス

｠〉】｝」》〕』〗〛〙］）〟”〞’
読点、句点、全角カンマ、全角ピリオド

※いずれも全角。";
},
{

glyphs = (
{
color = 5;
glyphname = .notdef;
lastChange = "2016-05-25 19:21:28 +0000";
layers = (
{
layerId = "3414DB1E-DCA6-4525-BBC7-543CEEA14C82";
shapes = (
{
closed = 1;
nodes = (
(900,-95,l),
(900,855,l),
(100,855,l),
(100,-95,l)
);
},
{
closed = 1;
nodes = (
(500,349,l),
(834,-55,l),
(166,-55,l)
);
},
{
closed = 1;
nodes = (
(140,784,l),
(474,380,l),
(140,-24,l)
);
},
{
closed = 1;
nodes = (
(526,380,l),
(860,784,l),
(860,-24,l)
);
},
{
closed = 1;
nodes = (
(166,815,l),
(834,815,l),
(500,411,l)
);
}
);
width = 1000;
}
);
},
{
color = 5;
glyphname = "comma-han";
lastChange = "2016-05-27 13:46:01 +0000";
layers = (
{
layerId = "3414DB1E-DCA6-4525-BBC7-543CEEA14C82";
shapes = (
{
closed = 1;
nodes = (
(294,-79,o),
(315,-47,o),
(315,-18,cs),
(315,48,o),
(209,132,o),
(86,160,c),
(78,162,o),
(72,160,o),
(68,155,cs),
(64,150,o),
(66,145,o),
(75,139,cs),
(136,100,o),
(176,49,o),
(204,-26,c),
(213,-58,o),
(237,-79,o),
(263,-79,cs)
);
}
);
width = 1000;
}
);
note = cid01390;
unicode = 12289;
},
{
color = 5;
glyphname = "period-han";
lastChange = "2016-05-27 13:46:01 +0000";
layers = (
{
layerId = "3414DB1E-DCA6-4525-BBC7-543CEEA14C82";
shapes = (
{
closed = 1;
nodes = (
(262,-82,o),
(321,-23,o),
(321,49,cs),
(321,122,o),
(262,180,o),
(190,180,cs),
(117,180,o),
(59,122,o),
(59,49,cs),
(59,-23,o),
(117,-82,o),
(190,-82,cs)
);
},
{
closed = 1;
nodes = (
(136,-48,o),
(92,-4,o),
(92,49,cs),
(92,103,o),
(136,147,o),
(190,147,cs),
(243,147,o),
(287,103,o),
(287,49,cs),
(287,-4,o),
(243,-48,o),
(190,-48,cs)
);
}
);
width = 1000;
}
);
note = cid01391;
unicode = 12290;
},
{
color = 5;
glyphname = comma.full;
lastChange = "2016-05-27 13:46:01 +0000";
layers = (
{
layerId = "3414DB1E-DCA6-4525-BBC7-543CEEA14C82";
shapes = (
{
closed = 1;
nodes = (
(78,-111,o),
(82,-109,o),
(85,-106,c),
(162,-44,o),
(199,13,o),
(199,68,cs),
(199,118,o),
(170,152,o),
(127,152,cs),
(88,152,o),
(58,123,o),
(58,86,cs),
(58,61,o),
(72,39,o),
(94,26,cs),
(118,13,o),
(124,7,o),
(124,-7,cs),
(124,-31,o),
(110,-51,o),
(68,-85,cs),
(63,-89,o),
(61,-93,o),
(61,-97,cs),
(61,-100,o),
(62,-103,o),
(64,-106,c),
(66,-109,o),
(69,-111,o),
(73,-111,cs)
);
}
);
width = 1000;
}
);
note = cid59003;
unicode = 65292;
},
{
color = 5;
glyphname = period.full;
lastChange = "2016-05-27 13:46:01 +0000";
layers = (
{
layerId = "3414DB1E-DCA6-4525-BBC7-543CEEA14C82";
shapes = (
{
closed = 1;
nodes = (
(168,-40,o),
(200,-8,o),
(200,31,cs),
(200,70,o),
(168,102,o),
(129,102,cs),
(90,102,o),
(58,70,o),
(58,31,cs),
(58,-8,o),
(90,-40,o),
(129,-40,cs)
);
}
);
width = 1000;
}
);
note = cid59005;
unicode = 65294;
},
{
color = 5;
glyphname = whiteparenleft.full;
lastChange = "2016-05-27 13:46:01 +0000";
layers = (
{
layerId = "3414DB1E-DCA6-4525-BBC7-543CEEA14C82";
shapes = (
{
closed = 1;
nodes = (
(927,-100,o),
(929,-99,o),
(930,-97,cs),
(933,-92,o),
(932,-87,o),
(925,-80,c),
(748,114,o),
(731,308,o),
(731,380,cs),
(731,452,o),
(748,646,o),
(925,840,c),
(930,845,o),
(932,848,o),
(932,852,cs),
(932,854,o),
(931,855,o),
(930,857,cs),
(927,862,o),
(921,861,o),
(913,854,cs),
(764,730,o),
(676,554,o),
(676,380,cs),
(676,206,o),
(764,30,o),
(913,-94,cs),
(918,-98,o),
(922,-100,o),
(925,-100,cs)
);
},
{
closed = 1;
nodes = (
(784,-100,o),
(786,-99,o),
(787,-97,cs),
(790,-92,o),
(789,-87,o),
(782,-80,c),
(605,114,o),
(588,308,o),
(588,380,cs),
(588,452,o),
(605,646,o),
(782,840,c),
(787,845,o),
(789,848,o),
(789,852,cs),
(789,854,o),
(788,855,o),
(787,857,cs),
(784,862,o),
(778,861,o),
(770,854,cs),
(621,730,o),
(533,554,o),
(533,380,cs),
(533,206,o),
(621,30,o),
(770,-94,cs),
(775,-98,o),
(779,-100,o),
(782,-100,cs)
);
}
);
width = 1000;
}
);
note = cid59085;
unicode = 65375;
},
{
color = 5;
glyphname = anglebracketleft;
lastChange = "2016-05-27 13:46:01 +0000";
layers = (
{
layerId = "3414DB1E-DCA6-4525-BBC7-543CEEA14C82";
shapes = (
{
closed = 1;
nodes = (
(932,-90,l),
(629,380,l),
(932,850,l),
(898,870,l),
(581,379,l),
(897,-110,l)
);
}
);
width = 1000;
}
);
note = cid01397;
unicode = 12296;
},
{
color = 5;
glyphname = blacklenticularbracketleft;
lastChange = "2016-05-27 13:46:01 +0000";
layers = (
{
layerId = "3414DB1E-DCA6-4525-BBC7-543CEEA14C82";
shapes = (
{
closed = 1;
nodes = (
(942,-93,l),
(818,13,o),
(736,198,o),
(736,380,cs),
(736,562,o),
(818,747,o),
(942,853,c),
(638,853,l),
(638,-93,l)
);
}
);
width = 1000;
}
);
note = cid01405;
unicode = 12304;
},
{
color = 5;
glyphname = braceleft.full;
lastChange = "2016-05-27 13:46:01 +0000";
layers = (
{
layerId = "3414DB1E-DCA6-4525-BBC7-543CEEA14C82";
shapes = (
{
closed = 1;
nodes = (
(944,-102,o),
(950,-99,o),
(950,-95,cs),
(950,-91,o),
(946,-88,o),
(938,-87,cs),
(830,-77,o),
(784,-33,o),
(784,61,cs),
(784,87,o),
(788,118,o),
(795,156,cs),
(801,186,o),
(804,213,o),
(804,237,cs),
(804,319,o),
(766,364,o),
(686.008,380,c),
(766,396,o),
(804,441,o),
(804,523,cs),
(804,547,o),
(801,574,o),
(795,604,cs),
(788,642,o),
(784,673,o),
(784,699,cs),
(784,793,o),
(830,837,o),
(938,847,cs),
(946,848,o),
(950,851,o),
(950,855,cs),
(950,858,o),
(946,861,o),
(940,861,cs),
(937,861,l),
(785,848,o),
(723,799,o),
(723,690,cs),
(723,663,o),
(726,633,o),
(733,602,cs),
(740,570,o),
(743,542,o),
(743,516,cs),
(743,428,o),
(700,387,o),
(605,387,cs),
(592,387,ls),
(585,387,o),
(580,384,o),
(580,380,cs),
(580,376,o),
(585,373,o),
(592,373,cs),
(605,373,ls),
(700,373,o),
(743,332,o),
(743,244,cs),
(743,218,o),
(740,190,o),
(733,158,cs),
(726,127,o),
(723,97,o),
(723,70,cs),
(723,-39,o),
(785,-88,o),
(937,-101,c)
);
}
);
width = 1000;
}
);
note = cid59082;
unicode = 65371;
},
{
color = 5;
glyphname = cornerbracketleft;
lastChange = "2016-05-27 13:46:01 +0000";
layers = (
{
layerId = "3414DB1E-DCA6-4525-BBC7-543CEEA14C82";
shapes = (
{
closed = 1;
nodes = (
(683,-17,l),
(683,811,l),
(942,811,l),
(942,853,l),
(641,853,l),
(641,-17,l)
);
}
);
width = 1000;
}
);
note = cid01401;
unicode = 12300;
},
{
color = 5;
glyphname = dblanglebracketleft;
lastChange = "2016-05-27 13:46:01 +0000";
layers = (
{
layerId = "3414DB1E-DCA6-4525-BBC7-543CEEA14C82";
shapes = (
{
closed = 1;
nodes = (
(960,-90,l),
(723,380,l),
(960,850,l),
(924,866,l),
(678,380,l),
(924,-106,l)
);
},
{
closed = 1;
nodes = (
(838,-90,l),
(601,380,l),
(838,850,l),
(802,866,l),
(556,380,l),
(802,-106,l)
);
}
);
width = 1000;
}
);
note = cid01399;
unicode = 12298;
},
{
color = 5;
glyphname = tortoiseshellbracketleft;
lastChange = "2016-05-27 13:46:01 +0000";
layers = (
{
layerId = "3414DB1E-DCA6-4525-BBC7-543CEEA14C82";
shapes = (
{
closed = 1;
nodes = (
(941,-68,l),
(683,77,l),
(683,681,l),
(943,828,l),
(922,864,l),
(641,706,l),
(641,52,l),
(920,-104,l)
);
}
);
width = 1000;
}
);
note = cid01409;
unicode = 12308;
},
{
color = 5;
glyphname = whitecornerbracketleft;
lastChange = "2016-05-27 13:46:01 +0000";
layers = (
{
layerId = "3414DB1E-DCA6-4525-BBC7-543CEEA14C82";
shapes = (
{
closed = 1;
nodes = (
(741,-17,l),
(741,712,l),
(942,712,l),
(942,853,l),
(600,853,l),
(600,-17,l)
);
},
{
closed = 1;
nodes = (
(638,815,l),
(904,815,l),
(904,750,l),
(703,750,l),
(703,21,l),
(638,21,l)
);
}
);
width = 1000;
}
);
note = cid01403;
unicode = 12302;
},
{
color = 5;
glyphname = whitelenticularbracketleft;
lastChange = "2016-05-27 13:46:01 +0000";
layers = (
{
layerId = "3414DB1E-DCA6-4525-BBC7-543CEEA14C82";
shapes = (
{
closed = 1;
nodes = (
(942,-93,l),
(818,13,o),
(736,198,o),
(736,380,cs),
(736,562,o),
(818,747,o),
(942,853,c),
(600,853,l),
(600,-93,l)
);
},
{
closed = 1;
nodes = (
(638,815,l),
(852,815,l),
(757,700,o),
(698,538,o),
(698,380,cs),
(698,222,o),
(757,60,o),
(852,-55,c),
(638,-55,l)
);
}
);
width = 1000;
}
);
note = cid01411;
unicode = 12310;
},
{
color = 5;
glyphname = whitesquarebracketleft;
lastChange = "2016-05-27 13:46:01 +0000";
layers = (
{
layerId = "3414DB1E-DCA6-4525-BBC7-543CEEA14C82";
shapes = (
{
closed = 1;
nodes = (
(943,-93,l),
(943,-55,l),
(741,-55,l),
(741,815,l),
(942,815,l),
(942,853,l),
(600,853,l),
(600,-93,l)
);
},
{
closed = 1;
nodes = (
(638,815,l),
(703,815,l),
(703,-55,l),
(638,-55,l)
);
}
);
width = 1000;
}
);
note = cid01415;
unicode = 12314;
},
{
color = 5;
glyphname = whitetortoiseshellbracketleft;
lastChange = "2016-05-27 13:46:01 +0000";
layers = (
{
layerId = "3414DB1E-DCA6-4525-BBC7-543CEEA14C82";
shapes = (
{
closed = 1;
nodes = (
(943,43,l),
(741,141,l),
(741,619,l),
(943,717,l),
(943,866,l),
(600,707,l),
(600,53,l),
(943,-106,l)
);
},
{
closed = 1;
nodes = (
(638,76,l),
(638,684,l),
(905,813,l),
(905,735,l),
(703,641,l),
(703,119,l),
(905,25,l),
(905,-53,l)
);
}
);
width = 1000;
}
);
note = cid01413;
unicode = 12312;
},
{
color = 5;
glyphname = bracketleft.full;
lastChange = "2016-05-27 13:46:01 +0000";
layers = (
{
layerId = "3414DB1E-DCA6-4525-BBC7-543CEEA14C82";
shapes = (
{
closed = 1;
nodes = (
(683,-93,l),
(683,853,l),
(641,853,l),
(641,-93,l)
);
},
{
closed = 1;
nodes = (
(942,-93,l),
(942,-51,l),
(641,-51,l),
(641,-93,l)
);
},
{
closed = 1;
nodes = (
(954,811,l),
(954,853,l),
(641,853,l),
(641,811,l)
);
}
);
width = 1000;
}
);
note = cid59050;
unicode = 65339;
},
{
color = 5;
glyphname = parenleft.full;
lastChange = "2016-05-27 13:46:01 +0000";
layers = (
{
layerId = "3414DB1E-DCA6-4525-BBC7-543CEEA14C82";
shapes = (
{
closed = 1;
nodes = (
(927,-100,o),
(929,-99,o),
(930,-97,cs),
(933,-92,o),
(932,-87,o),
(925,-80,c),
(748,114,o),
(731,308,o),
(731,380,cs),
(731,452,o),
(748,646,o),
(925,840,c),
(930,845,o),
(932,848,o),
(932,852,cs),
(932,854,o),
(931,855,o),
(930,857,cs),
(927,862,o),
(921,861,o),
(913,854,cs),
(764,730,o),
(676,554,o),
(676,380,cs),
(676,206,o),
(764,30,o),
(913,-94,cs),
(918,-98,o),
(922,-100,o),
(925,-100,cs)
);
}
);
width = 1000;
}
);
note = cid58999;
unicode = 65288;
},
{
color = 5;
glyphname = quotedoubleprimeReversed;
lastChange = "2016-05-27 13:46:01 +0000";
layers = (
{
layerId = "3414DB1E-DCA6-4525-BBC7-543CEEA14C82";
shapes = (
{
closed = 1;
nodes = (
(798,568,l),
(662,825,ls),
(656,835,o),
(647,841,o),
(634,841,cs),
(611,841,o),
(590,824,o),
(590,806,cs),
(590,799,o),
(593,791,o),
(598,784,cs),
(780,554,l)
);
},
{
closed = 1;
nodes = (
(959,569,l),
(842,824,l),
(836,835,o),
(826,840,o),
(813,840,cs),
(789,840,o),
(769,824,o),
(769,806,cs),
(769,799,o),
(772,791,o),
(776,785,cs),
(938,556,l)
);
}
);
width = 1000;
}
);
note = cid01418;
unicode = 12317;
},
{
color = 5;
glyphname = "dot-kata";
lastChange = "2016-05-27 13:46:01 +0000";
layers = (
{
layerId = "3414DB1E-DCA6-4525-BBC7-543CEEA14C82";
shapes = (
{
closed = 1;
nodes = (
(557,285,o),
(595,328,o),
(595,380,cs),
(595,432,o),
(552,475,o),
(500,475,cs),
(448,475,o),
(405,432,o),
(405,380,cs),
(405,328,o),
(448,285,o),
(500,285,cs)
);
}
);
width = 1000;
}
);
note = cid01637;
unicode = 12539;
},
{
color = 5;
glyphname = quoteleft.vert;
lastChange = "2016-05-27 13:46:01 +0000";
layers = (
{
layerId = "3414DB1E-DCA6-4525-BBC7-543CEEA14C82";
shapes = (
{
closed = 1;
nodes = (
(911,214,o),
(902,208,o),
(896,198,cs),
(760,-59,l),
(778,-73,l),
(960,157,ls),
(965,164,o),
(968,172,o),
(968,179,cs),
(968,197,o),
(947,214,o),
(924,214,cs)
);
}
);
width = 1000;
}
);
note = cid00718;
},
